<svg xmlns="http://www.w3.org/2000/svg" xmlns:xlink="http://www.w3.org/1999/xlink" width="500" zoomAndPan="magnify" viewBox="0 0 375 374.999991" height="500" preserveAspectRatio="xMidYMid meet" version="1.0"><defs><clipPath id="3e862e7a6c"><path d="M 6.117188 72.558594 L 368 72.558594 L 368 270 L 6.117188 270 Z M 6.117188 72.558594 " clip-rule="nonzero"/></clipPath></defs><rect x="-37.5" width="450" fill="#ffffff" y="-37.499999" height="449.999989" fill-opacity="1"/><rect x="-37.5" width="450" fill="#a6a6a6" y="-37.499999" height="449.999989" fill-opacity="1"/><g clip-path="url(#3e862e7a6c)"><path fill="#000000" d="M 136.621094 225.476562 C 129.929688 227.65625 122.402344 226.402344 116.78125 222.171875 C 116.761719 222.179688 116.738281 222.183594 116.714844 222.191406 C 113.152344 223.0625 109.523438 223.054688 106.105469 222.289062 C 101.332031 225.179688 96.011719 227.808594 91.609375 229.972656 C 90.695312 230.417969 89.777344 230.835938 88.855469 231.203125 C 88.167969 237.488281 85.191406 243.199219 80.652344 247.34375 C 74.164062 259.335938 61.691406 267.214844 47.613281 267.214844 C 33.53125 267.214844 21.058594 259.335938 14.570312 247.34375 C 9.371094 242.597656 6.21875 235.785156 6.21875 228.417969 L 6.21875 224.914062 C 6.21875 220.417969 7.402344 216.019531 9.621094 212.160156 C 9.75 211.871094 9.886719 211.585938 10.027344 211.304688 L 10.027344 176 C 9.886719 175.71875 9.75 175.433594 9.621094 175.144531 C 7.402344 171.285156 6.21875 166.886719 6.21875 162.390625 L 6.21875 158.886719 C 6.21875 151.519531 9.371094 144.707031 14.570312 139.960938 C 21.0625 127.96875 33.535156 120.089844 47.613281 120.089844 C 61.691406 120.089844 74.164062 127.972656 80.652344 139.960938 C 83.738281 142.777344 86.101562 146.324219 87.515625 150.277344 C 87.824219 150.214844 88.132812 150.152344 88.445312 150.089844 C 96.339844 148.53125 104.992188 149.601562 111.664062 153.707031 C 117 149.5 123.316406 147.410156 130.453125 148.625 C 133.972656 149.21875 137.289062 150.433594 140.195312 152.210938 C 149.25 147.386719 161.8125 147.339844 170.941406 150.335938 C 173.246094 151.089844 175.316406 152.042969 177.167969 153.199219 C 181.136719 151.890625 185.324219 150.894531 189.378906 150.089844 C 197.699219 148.445312 206.867188 149.722656 213.664062 154.402344 C 214.070312 154.148438 214.472656 153.898438 214.871094 153.664062 C 217.515625 152.113281 219.917969 151.316406 222.742188 150.355469 C 224.273438 149.832031 225.78125 149.40625 227.269531 149.105469 C 220.589844 139.851562 216.859375 129.132812 220.839844 117.496094 L 227.894531 96.855469 C 245.691406 105.890625 253.585938 110.21875 269.425781 123.160156 C 270.71875 124.214844 272.019531 125.304688 273.339844 126.414062 C 277.304688 97.371094 277.289062 95.929688 292.234375 72.558594 L 308.621094 85.296875 C 332.875 104.148438 320.777344 135.191406 315.859375 161.339844 C 316.558594 161.929688 317.265625 162.511719 317.976562 163.085938 C 320 164.71875 322.125 166.242188 324.183594 167.839844 C 337.542969 166.789062 349.148438 175.308594 355.625 186.4375 C 359.304688 192.75 362.675781 197.953125 364.988281 205.0625 C 366.472656 209.621094 365.738281 206.714844 366.570312 211.417969 C 368.945312 224.832031 365.800781 240.671875 353.210938 248.105469 C 343.890625 253.609375 333.257812 252.230469 324.273438 246.871094 C 320.894531 244.851562 317.4375 241.726562 314.191406 237.882812 C 313.171875 244.429688 310.679688 250.71875 306.847656 255.847656 C 300.027344 264.988281 289.769531 270.613281 278.179688 269.226562 C 257.8125 266.796875 246.5625 245.457031 248.367188 226.464844 C 245.527344 227.429688 242.351562 227.828125 238.886719 227.53125 C 235.386719 227.234375 232.1875 226.191406 229.40625 224.574219 C 227.988281 224.835938 226.550781 225.023438 225.113281 225.148438 C 218.90625 225.679688 212.886719 224.660156 207.417969 222.0625 C 202.546875 225.042969 197.066406 227.75 192.546875 229.972656 C 186.546875 232.921875 180.371094 234.300781 173.71875 232.882812 C 167.191406 231.492188 162.554688 227.875 159.8125 223.257812 C 155.765625 226.390625 150.523438 228.058594 144.367188 227.53125 C 141.574219 227.289062 138.972656 226.578125 136.621094 225.476562 Z M 136.621094 225.476562 " fill-opacity="1" fill-rule="evenodd"/></g><path fill="#ffffff" d="M 137.3125 214.628906 C 136.34375 215.332031 135.238281 215.917969 133.976562 216.367188 C 130.007812 217.773438 125.363281 216.972656 122.101562 214.304688 C 120.828125 213.261719 119.890625 212.085938 119.214844 210.816406 C 117.910156 211.785156 116.34375 212.519531 114.457031 212.980469 C 111.167969 213.789062 107.71875 213.320312 104.835938 211.828125 C 99.707031 215.445312 92.585938 218.929688 87.433594 221.464844 C 84.847656 222.734375 82.230469 223.652344 79.5 223.894531 C 79.519531 224.234375 79.53125 224.574219 79.53125 224.914062 L 79.53125 228.417969 C 79.53125 233.597656 77.058594 238.335938 73.082031 241.324219 C 68.480469 251.140625 58.742188 257.734375 47.609375 257.734375 C 36.476562 257.734375 26.742188 251.140625 22.140625 241.324219 C 18.164062 238.335938 15.691406 233.597656 15.691406 228.417969 L 15.691406 224.914062 C 15.691406 221.925781 16.523438 219.007812 18.070312 216.480469 C 18.460938 215.542969 18.9375 214.644531 19.496094 213.808594 L 19.496094 173.496094 C 18.9375 172.65625 18.460938 171.761719 18.070312 170.824219 C 16.519531 168.296875 15.691406 165.378906 15.691406 162.390625 L 15.691406 158.886719 C 15.691406 153.710938 18.164062 148.96875 22.140625 145.980469 C 26.742188 136.164062 36.476562 129.570312 47.613281 129.570312 C 58.746094 129.570312 68.484375 136.164062 73.085938 145.980469 C 77.058594 148.96875 79.535156 153.710938 79.535156 158.886719 L 79.535156 162.089844 C 83.027344 160.960938 86.730469 160.09375 90.28125 159.390625 C 98.140625 157.839844 108.152344 159.71875 111.90625 167.46875 C 113.132812 165.671875 114.371094 164.082031 115.550781 162.910156 C 119.226562 159.265625 123.515625 157.058594 128.871094 157.96875 C 133.40625 158.738281 137.550781 160.992188 139.792969 164.847656 C 140.148438 164.332031 140.519531 163.855469 140.90625 163.421875 C 146.714844 156.945312 160.183594 156.78125 167.996094 159.34375 C 171.261719 160.414062 173.671875 161.933594 175.480469 164.15625 C 176.40625 163.628906 177.394531 163.171875 178.429688 162.796875 C 182.5 161.3125 186.964844 160.234375 191.21875 159.394531 C 198.929688 157.867188 208.707031 159.652344 212.621094 167.035156 C 214.847656 165.078125 217.367188 163.195312 219.671875 161.839844 C 221.695312 160.652344 223.632812 160.066406 225.804688 159.328125 C 229.710938 157.996094 233.132812 157.4375 237.125 159.089844 C 237.976562 159.445312 238.773438 159.875 239.507812 160.378906 C 242.230469 158.992188 245.507812 158.222656 248.867188 157.933594 C 228.734375 141.21875 225.40625 133.425781 233.328125 110.238281 C 240.625 113.945312 245.390625 116.261719 251.984375 121.34375 C 255.851562 124.328125 259.65625 127.410156 263.4375 130.5 C 267.304688 133.660156 271.152344 136.847656 275.003906 140.019531 C 276.6875 141.40625 278.472656 142.957031 280.246094 144.324219 C 280.582031 142.125 280.921875 139.925781 281.289062 137.730469 C 282.339844 131.363281 283.203125 124.914062 284.179688 118.523438 C 286.671875 102.164062 285.992188 99.894531 294.617188 86.414062 C 300.839844 91.25 307.296875 95.273438 310.847656 102.621094 C 315.671875 112.601562 313.859375 124.414062 311.710938 134.84375 C 309.617188 144.976562 307.042969 154.800781 305.605469 165.011719 C 307.710938 166.867188 309.839844 168.695312 312.027344 170.457031 C 314.417969 172.386719 316.925781 174.160156 319.328125 176.074219 C 320.039062 176.636719 320.746094 177.253906 321.453125 177.875 C 322.496094 177.589844 323.613281 177.398438 324.824219 177.296875 C 334.574219 176.476562 342.777344 183.199219 347.4375 191.207031 C 350.734375 196.871094 353.90625 201.621094 355.976562 207.992188 C 356.515625 209.648438 356.9375 211.351562 357.238281 213.066406 C 358.894531 222.425781 357.355469 234.644531 348.390625 239.9375 C 342.121094 243.640625 335.078125 242.28125 329.121094 238.722656 C 322.699219 234.894531 317.808594 227.96875 314.417969 221.4375 C 311.472656 215.765625 307.5 206.132812 307.5625 198.125 C 305.804688 196.613281 303.730469 195.058594 302.300781 193.949219 C 301.195312 193.09375 299.847656 192.027344 298.457031 190.984375 C 297.773438 193.957031 297.164062 197.011719 296.582031 199.757812 C 295.949219 202.714844 295.339844 205.683594 294.800781 208.660156 C 294.746094 208.984375 294.679688 209.332031 294.609375 209.6875 C 294.734375 209.761719 294.859375 209.84375 294.980469 209.921875 C 297.839844 211.773438 300.097656 214.183594 301.777344 217.148438 C 307.347656 226.96875 305.941406 241.210938 299.253906 250.171875 C 294.480469 256.566406 287.480469 260.789062 279.296875 259.808594 C 264.132812 257.996094 256.414062 241.003906 257.800781 227.179688 C 258.242188 222.796875 259.996094 218.726562 262.625 215.292969 C 259.125 213.96875 255.875 211.464844 253.101562 209.011719 C 251.234375 214.6875 246.722656 218.683594 239.679688 218.082031 C 236.355469 217.796875 233.542969 216.398438 231.472656 214.285156 C 229.144531 215.050781 226.695312 215.496094 224.296875 215.699219 C 218.226562 216.21875 212.484375 214.757812 207.542969 211.148438 C 207.402344 211.042969 207.257812 210.9375 207.117188 210.828125 C 201.953125 214.796875 193.984375 218.695312 188.363281 221.457031 C 184.316406 223.445312 180.199219 224.570312 175.679688 223.605469 C 170.308594 222.460938 167.328125 218.816406 166.507812 214.597656 C 163.617188 213.195312 160.929688 211.085938 158.585938 209.011719 C 156.71875 214.6875 152.203125 218.683594 145.164062 218.082031 C 142.03125 217.816406 139.34375 216.554688 137.3125 214.628906 Z M 137.3125 214.628906 " fill-opacity="1" fill-rule="evenodd"/><path fill="#000000" d="M 186.898438 174.710938 C 189.265625 174.554688 195.808594 172.835938 197.652344 173.6875 C 196.164062 176.539062 194.671875 177.058594 192.089844 178.589844 C 190.496094 179.539062 187.230469 181.75 186.921875 183.617188 C 186.472656 186.375 189.144531 188.191406 191.609375 188.523438 C 194.035156 188.847656 196.597656 188.652344 198.917969 189.523438 C 201.238281 190.390625 197.113281 194.941406 195.804688 195.738281 C 193.863281 196.925781 191.847656 198.113281 189.839844 199.171875 C 185.683594 201.367188 181.589844 203.097656 177.785156 205.949219 C 175.839844 207.414062 174.316406 211.445312 177.65625 212.15625 C 179.9375 212.640625 182.191406 211.75 184.191406 210.769531 C 188.679688 208.566406 198.402344 203.671875 202.179688 200.460938 C 206.660156 196.652344 209.675781 187.289062 203.460938 183.679688 C 201.816406 182.722656 201.179688 182.707031 199.519531 182.101562 C 201.28125 179.832031 202.53125 178.933594 203.832031 176.148438 C 205.121094 173.394531 205.503906 172.761719 204.515625 169.910156 C 203.160156 166 196.449219 165.832031 193.046875 166.507812 C 189.464844 167.214844 185.085938 168.269531 181.664062 169.515625 C 179.671875 170.242188 177.429688 171.488281 178.082031 174.035156 C 178.484375 175.621094 179.796875 175.792969 179.96875 176.410156 C 180.058594 176.734375 179.691406 179.023438 179.636719 179.558594 C 179.210938 183.761719 178.402344 187.953125 178 192.109375 C 177.804688 194.128906 177.695312 196.164062 177.921875 198.183594 C 178.1875 200.542969 181.078125 201.640625 182.769531 200.085938 C 184.078125 198.882812 184.199219 195.511719 184.445312 193.75 C 184.742188 191.613281 185.058594 189.480469 185.351562 187.34375 C 185.773438 184.289062 186.429688 176.832031 186.898438 174.710938 Z M 186.898438 174.710938 " fill-opacity="1" fill-rule="evenodd"/><path fill="#000000" d="M 120.527344 184.144531 C 120.832031 183.285156 121.273438 182.769531 121.667969 181.96875 C 122.503906 180.269531 122.9375 179.34375 124.089844 177.585938 C 124.535156 176.910156 124.546875 176.683594 125.398438 175.460938 C 125.910156 175.882812 126.769531 182.335938 126.582031 182.871094 C 126 183.113281 121.210938 184.105469 120.527344 184.144531 Z M 134.480469 182.066406 C 134.648438 180.542969 133.523438 174.546875 133.128906 172.773438 C 132.792969 171.257812 132.285156 169.75 131.917969 168.246094 C 131.46875 166.386719 129.382812 165.488281 127.277344 165.128906 C 125.085938 164.753906 123.480469 166.203125 122.214844 167.457031 C 119.300781 170.34375 114.03125 180.347656 112.316406 183.890625 C 110.421875 187.808594 108.804688 190.167969 107.996094 194.453125 C 107.753906 195.730469 107.265625 198.113281 107.578125 199.34375 C 108.007812 201.039062 110.1875 202.085938 112.199219 201.59375 C 114.554688 201.015625 114.832031 199.09375 115.125 197.394531 C 115.285156 196.492188 116 192.945312 116.433594 192.320312 C 116.664062 191.988281 120.851562 190.792969 121.605469 190.582031 C 122.371094 190.367188 126.351562 189.636719 127.03125 189.667969 C 127.171875 191.152344 127.265625 192.628906 127.058594 194.109375 C 126.894531 195.296875 127.148438 197.179688 127.082031 198.46875 C 127.007812 199.949219 126.699219 203.644531 128.09375 204.78125 C 128.765625 205.332031 129.933594 205.558594 130.8125 205.25 C 135.894531 203.445312 133.949219 190.480469 134.960938 187.355469 C 135.410156 187.199219 138.8125 187.09375 138.558594 184.46875 C 138.300781 181.796875 134.910156 182.164062 134.480469 182.066406 Z M 134.480469 182.066406 " fill-opacity="1" fill-rule="evenodd"/><path fill="#000000" d="M 165.039062 166.164062 C 161.902344 165.132812 151.097656 164.054688 147.949219 167.566406 C 143.691406 172.3125 142.214844 190.054688 142.523438 196.722656 C 142.613281 198.65625 142.636719 200.289062 142.597656 202.222656 C 142.554688 204.394531 143.632812 206.253906 145.972656 206.453125 C 150.933594 206.878906 149.921875 200.296875 150.191406 197.183594 C 150.507812 193.601562 150.585938 189.523438 150.613281 185.917969 C 150.636719 183.507812 150.757812 182.5 151.453125 180.167969 C 153.359375 173.753906 153.558594 172.6875 159.148438 172.746094 C 162.828125 172.78125 162.199219 173.148438 160.207031 176.210938 C 157.355469 180.585938 156.71875 180.480469 154.027344 183.792969 C 153.339844 184.640625 152.417969 185.257812 152.195312 186.394531 C 151.789062 188.484375 154.136719 190.136719 155.6875 191.007812 C 157.679688 192.125 173.460938 210.960938 175.214844 202.277344 C 175.441406 201.171875 173.359375 198.265625 172.605469 197.335938 C 171.378906 195.832031 169.722656 194.386719 168.359375 192.96875 C 166.925781 191.484375 165.691406 189.976562 164.335938 188.441406 C 162.195312 186.015625 164.011719 185.195312 165.261719 182.667969 C 166.84375 179.464844 170.664062 174.011719 169.378906 170.394531 C 168.503906 167.902344 167.675781 167.027344 165.039062 166.164062 Z M 165.039062 166.164062 " fill-opacity="1" fill-rule="evenodd"/><path fill="#000000" d="M 233.496094 165.660156 C 231.925781 165.007812 230.398438 165.582031 228.851562 166.109375 C 227.402344 166.605469 225.761719 167.0625 224.464844 167.824219 C 221.960938 169.292969 218.589844 172.042969 216.605469 174.113281 C 211.117188 179.84375 208.324219 185.464844 208.617188 193.292969 C 208.722656 196.207031 210.71875 199.550781 213.128906 201.3125 C 216.222656 203.570312 219.65625 204.402344 223.488281 204.070312 C 236.753906 202.933594 236.496094 193.726562 229.457031 195.621094 C 227.050781 196.269531 222.445312 197.257812 220.070312 196.585938 C 214.6875 195.050781 216.304688 189.421875 217.179688 188.453125 C 218.117188 187.410156 231.71875 183.035156 234.300781 180.5625 C 235.773438 179.152344 234.554688 177.074219 232.601562 177.328125 C 231.90625 177.414062 231.070312 177.785156 230.328125 177.941406 C 229.546875 178.105469 228.785156 178.199219 227.996094 178.320312 C 226.765625 178.515625 224.722656 178.941406 223.535156 179.269531 C 221.710938 179.777344 220.273438 180.296875 223.257812 177.585938 C 224.507812 176.453125 225.703125 175.367188 227.070312 174.355469 C 230.191406 172.046875 234.285156 172.25 235.308594 169.632812 C 235.953125 167.988281 235.175781 166.355469 233.496094 165.660156 Z M 233.496094 165.660156 " fill-opacity="1" fill-rule="evenodd"/><path fill="#000000" d="M 259.558594 166.164062 C 256.421875 165.132812 245.613281 164.054688 242.464844 167.566406 C 238.210938 172.3125 236.734375 190.054688 237.042969 196.722656 C 237.132812 198.65625 237.15625 200.289062 237.117188 202.222656 C 237.074219 204.394531 238.152344 206.253906 240.492188 206.453125 C 245.453125 206.878906 244.4375 200.296875 244.710938 197.183594 C 245.023438 193.601562 245.105469 189.523438 245.132812 185.917969 C 245.15625 183.507812 245.277344 182.5 245.972656 180.167969 C 247.878906 173.753906 248.078125 172.6875 253.667969 172.746094 C 257.351562 172.78125 256.722656 173.148438 254.726562 176.210938 C 251.875 180.585938 251.238281 180.480469 248.550781 183.792969 C 247.863281 184.640625 246.9375 185.257812 246.714844 186.394531 C 246.308594 188.484375 248.65625 190.136719 250.210938 191.007812 C 252.199219 192.125 267.984375 210.960938 269.738281 202.277344 C 269.957031 201.171875 267.878906 198.265625 267.125 197.335938 C 265.898438 195.832031 264.242188 194.386719 262.878906 192.96875 C 261.445312 191.484375 260.214844 189.976562 258.855469 188.441406 C 256.71875 186.015625 258.53125 185.195312 259.785156 182.667969 C 261.367188 179.464844 265.1875 174.011719 263.902344 170.394531 C 263.019531 167.902344 262.191406 167.027344 259.558594 166.164062 Z M 259.558594 166.164062 " fill-opacity="1" fill-rule="evenodd"/><path fill="#000000" d="M 85.960938 174.710938 C 88.328125 174.554688 94.871094 172.835938 96.71875 173.6875 C 95.226562 176.539062 93.730469 177.058594 91.15625 178.589844 C 89.558594 179.539062 86.292969 181.75 85.988281 183.617188 C 85.535156 186.375 88.207031 188.191406 90.675781 188.523438 C 93.097656 188.847656 95.660156 188.652344 97.980469 189.523438 C 100.300781 190.390625 96.175781 194.941406 94.867188 195.738281 C 92.929688 196.925781 90.914062 198.113281 88.90625 199.171875 C 84.746094 201.367188 80.652344 203.097656 76.851562 205.949219 C 74.902344 207.414062 73.382812 211.445312 76.71875 212.15625 C 79 212.640625 81.253906 211.75 83.253906 210.769531 C 87.746094 208.566406 97.464844 203.671875 101.246094 200.460938 C 105.726562 196.652344 108.742188 187.289062 102.523438 183.679688 C 100.875 182.722656 100.242188 182.707031 98.582031 182.101562 C 100.34375 179.832031 101.59375 178.933594 102.894531 176.148438 C 104.179688 173.394531 104.566406 172.761719 103.578125 169.910156 C 102.222656 166 95.511719 165.832031 92.109375 166.507812 C 88.527344 167.214844 84.148438 168.269531 80.726562 169.515625 C 78.734375 170.242188 76.492188 171.488281 77.144531 174.035156 C 77.546875 175.621094 78.859375 175.792969 79.03125 176.410156 C 79.121094 176.734375 78.75 179.023438 78.699219 179.558594 C 78.273438 183.761719 77.460938 187.953125 77.0625 192.109375 C 76.867188 194.128906 76.753906 196.164062 76.980469 198.183594 C 77.25 200.542969 80.140625 201.640625 81.832031 200.085938 C 83.140625 198.882812 83.261719 195.511719 83.507812 193.75 C 83.804688 191.613281 84.117188 189.480469 84.414062 187.34375 C 84.835938 184.289062 85.492188 176.832031 85.960938 174.710938 Z M 85.960938 174.710938 " fill-opacity="1" fill-rule="evenodd"/><path fill="#000000" d="M 285.15625 221.914062 C 288.777344 224.628906 289.039062 232.460938 286.15625 236.101562 C 283.121094 239.9375 278.957031 239.808594 276.804688 237.203125 C 270.292969 229.296875 278.003906 216.554688 285.15625 221.914062 Z M 290.046875 165.464844 C 291.53125 165.464844 292.738281 166.671875 292.738281 168.160156 C 292.738281 169.644531 291.53125 170.851562 290.046875 170.851562 C 288.5625 170.851562 287.355469 169.644531 287.355469 168.160156 C 287.355469 166.671875 288.5625 165.464844 290.046875 165.464844 Z M 332.757812 198.171875 C 336.605469 202.847656 340.03125 211.164062 340.265625 216.246094 C 340.449219 220.175781 338.023438 222.5625 334.757812 219.449219 C 332.066406 216.890625 327.957031 209.542969 326.949219 206.109375 C 325.394531 200.832031 323.722656 187.191406 332.757812 198.171875 Z M 320.546875 187.195312 C 318.207031 185.578125 315.738281 183.144531 313.429688 181.304688 C 311.007812 179.375 308.503906 177.609375 306.078125 175.652344 C 303.671875 173.707031 301.359375 171.738281 299.046875 169.679688 L 295.601562 166.636719 C 298.769531 135.328125 312.9375 110.472656 297 98.082031 C 296.0625 99.550781 291.363281 132.648438 290.628906 137.09375 C 290.007812 140.847656 289.449219 144.589844 288.878906 148.351562 C 288.351562 151.84375 287.867188 156.007812 287.003906 159.386719 C 285.40625 158.453125 278.378906 152.5 275.910156 150.726562 C 271.824219 147.789062 244.519531 124.363281 238.761719 121.441406 C 233.375 137.199219 269.304688 157.628906 282.292969 167.800781 C 286.054688 169.875 284.847656 171.972656 284.078125 176.089844 C 283.871094 177.195312 283.777344 178.296875 283.617188 179.410156 C 283.300781 181.609375 282.910156 183.828125 282.5625 186.027344 C 281.851562 190.503906 281.203125 194.925781 280.667969 199.425781 C 280.390625 201.753906 280.179688 203.996094 279.816406 206.320312 C 279.507812 208.328125 279.472656 211.007812 278.691406 212.84375 C 278.691406 212.84375 268.210938 216.195312 267.230469 225.949219 C 266.023438 237.957031 273.382812 248.257812 281.558594 248.285156 C 293.636719 248.324219 298.988281 229.246094 293.546875 219.644531 C 290.183594 213.71875 284.695312 214.855469 284.59375 211.433594 C 284.472656 207.480469 289.789062 183.882812 291 180.019531 C 291.386719 178.796875 291.910156 175.230469 293.1875 174.835938 C 294.203125 174.519531 296.949219 176.664062 298.058594 177.210938 C 301.578125 178.945312 318.335938 191.8125 317.597656 192.988281 C 314.640625 197.707031 322.972656 221.839844 333.964844 228.398438 C 347.027344 236.191406 350.726562 220.300781 346.96875 208.742188 C 344.371094 200.757812 335.644531 183.714844 325.617188 184.558594 C 323.222656 184.757812 322.121094 185.484375 320.546875 187.195312 Z M 320.546875 187.195312 " fill-opacity="1" fill-rule="evenodd"/><path fill="#000000" d="M 68.648438 218.632812 C 69.550781 219.789062 70.058594 221.226562 70.058594 222.730469 L 70.058594 226.234375 C 70.058594 229.171875 68.144531 231.671875 65.496094 232.550781 C 63.082031 240.34375 56.070312 246.070312 47.609375 246.070312 C 39.148438 246.070312 32.136719 240.34375 29.71875 232.550781 C 27.074219 231.671875 25.160156 229.171875 25.160156 226.234375 L 25.160156 222.730469 C 25.160156 221.226562 25.667969 219.789062 26.570312 218.632812 C 26.964844 217.246094 27.820312 216.046875 28.964844 215.21875 L 28.964844 167.710938 C 27.820312 166.886719 26.960938 165.6875 26.570312 164.296875 C 25.667969 163.144531 25.160156 161.707031 25.160156 160.203125 L 25.160156 156.699219 C 25.160156 153.757812 27.074219 151.257812 29.71875 150.378906 C 32.136719 142.589844 39.148438 136.859375 47.609375 136.859375 C 56.070312 136.859375 63.082031 142.589844 65.496094 150.378906 C 68.144531 151.257812 70.058594 153.757812 70.058594 156.699219 L 70.058594 160.203125 C 70.058594 161.707031 69.550781 163.140625 68.648438 164.296875 C 68.253906 165.6875 67.394531 166.886719 66.253906 167.710938 L 66.253906 215.21875 C 67.394531 216.046875 68.253906 217.246094 68.648438 218.632812 Z M 68.648438 218.632812 " fill-opacity="1" fill-rule="evenodd"/><path fill="#000000" d="M 47.605469 242.167969 C 56.082031 242.167969 62.496094 234.925781 62.496094 226.605469 C 62.496094 218.28125 56.082031 211.042969 47.605469 211.042969 C 39.132812 211.042969 32.71875 218.28125 32.71875 226.605469 C 32.71875 234.925781 39.132812 242.167969 47.605469 242.167969 Z M 47.605469 242.167969 " fill-opacity="1" fill-rule="evenodd"/><path fill="#ffffff" d="M 47.605469 241.035156 C 55.207031 241.035156 61.367188 234.578125 61.367188 226.605469 C 61.367188 218.632812 55.207031 212.175781 47.605469 212.175781 C 40.007812 212.175781 33.847656 218.636719 33.847656 226.605469 C 33.847656 234.574219 40.007812 241.035156 47.605469 241.035156 Z M 47.605469 241.035156 " fill-opacity="1" fill-rule="evenodd"/><path fill="#000000" d="M 47.605469 140.765625 C 56.082031 140.765625 62.496094 148.003906 62.496094 156.328125 C 62.496094 164.652344 56.082031 171.890625 47.605469 171.890625 C 39.132812 171.890625 32.71875 164.652344 32.71875 156.328125 C 32.71875 148.003906 39.132812 140.765625 47.605469 140.765625 Z M 47.605469 140.765625 " fill-opacity="1" fill-rule="evenodd"/><path fill="#ffffff" d="M 47.605469 141.898438 C 55.207031 141.898438 61.367188 148.355469 61.367188 156.328125 C 61.367188 164.296875 55.207031 170.753906 47.605469 170.753906 C 40.007812 170.753906 33.847656 164.296875 33.847656 156.328125 C 33.847656 148.355469 40.007812 141.898438 47.605469 141.898438 Z M 47.605469 141.898438 " fill-opacity="1" fill-rule="evenodd"/><path fill="#000000" d="M 32.863281 158.636719 L 62.351562 158.636719 L 62.351562 228.289062 L 32.863281 228.289062 Z M 32.863281 158.636719 " fill-opacity="1" fill-rule="evenodd"/><path fill="#ffffff" d="M 33.996094 159.769531 L 61.21875 159.769531 L 61.21875 227.15625 L 33.996094 227.15625 Z M 33.996094 159.769531 " fill-opacity="1" fill-rule="evenodd"/><path fill="#0061ff" d="M 35.34375 180.742188 C 42.648438 171.4375 52.179688 170.835938 59.875 160.996094 L 59.875 172.65625 C 52.378906 182.074219 43.132812 183.214844 35.34375 192.402344 Z M 35.34375 180.742188 " fill-opacity="1" fill-rule="evenodd"/><path fill="#ff0000" d="M 35.34375 195.394531 C 42.648438 186.089844 52.179688 185.488281 59.875 175.652344 L 59.875 187.308594 C 52.378906 196.726562 43.132812 197.871094 35.34375 207.054688 Z M 35.34375 195.394531 " fill-opacity="1" fill-rule="evenodd"/><path fill="#ff0000" d="M 35.34375 165.710938 C 38.992188 161.066406 43.199219 158.589844 47.453125 156.046875 L 59.875 156.046875 L 59.875 157.628906 C 52.378906 167.046875 43.132812 168.1875 35.34375 177.375 Z M 35.34375 165.710938 " fill-opacity="1" fill-rule="evenodd"/><path fill="#0061ff" d="M 35.34375 210.375 C 42.648438 201.070312 52.179688 200.46875 59.875 190.628906 L 59.875 202.289062 C 52.511719 211.539062 43.464844 212.804688 35.761719 221.550781 L 35.34375 221.550781 Z M 35.34375 210.375 " fill-opacity="1" fill-rule="evenodd"/><path fill="#ff0000" d="M 38.957031 221.550781 C 45.617188 215.65625 53.398438 213.917969 59.871094 205.636719 L 59.871094 217.296875 C 58.566406 218.9375 57.207031 220.328125 55.8125 221.550781 Z M 38.957031 221.550781 " fill-opacity="1" fill-rule="evenodd"/><path fill="#000000" d="M 32.660156 157.320312 L 62.554688 157.320312 C 63.894531 157.320312 64.988281 158.410156 64.988281 159.753906 L 64.988281 162.570312 C 64.988281 163.910156 63.894531 165.003906 62.554688 165.003906 L 32.660156 165.003906 C 31.324219 165.003906 30.230469 163.910156 30.230469 162.570312 L 30.230469 159.753906 C 30.230469 158.410156 31.320312 157.320312 32.660156 157.320312 Z M 32.660156 157.320312 " fill-opacity="1" fill-rule="evenodd"/><path fill="#ffffff" d="M 32.660156 158.449219 L 62.554688 158.449219 C 63.269531 158.449219 63.859375 159.035156 63.859375 159.753906 L 63.859375 162.570312 C 63.859375 163.285156 63.273438 163.871094 62.554688 163.871094 L 32.660156 163.871094 C 31.949219 163.871094 31.359375 163.285156 31.359375 162.570312 L 31.359375 159.753906 C 31.359375 159.035156 31.945312 158.449219 32.660156 158.449219 Z M 32.660156 158.449219 " fill-opacity="1" fill-rule="evenodd"/><path fill="#000000" d="M 31.804688 153.949219 L 63.410156 153.949219 C 64.921875 153.949219 66.15625 155.183594 66.15625 156.699219 L 66.15625 160.203125 C 66.15625 161.71875 64.921875 162.953125 63.410156 162.953125 L 31.804688 162.953125 C 30.292969 162.953125 29.058594 161.71875 29.058594 160.203125 L 29.058594 156.699219 C 29.058594 155.183594 30.292969 153.949219 31.804688 153.949219 Z M 31.804688 153.949219 " fill-opacity="1" fill-rule="evenodd"/><path fill="#ffffff" d="M 31.804688 155.082031 L 63.410156 155.082031 C 64.296875 155.082031 65.027344 155.8125 65.027344 156.699219 L 65.027344 160.203125 C 65.027344 161.09375 64.296875 161.820312 63.410156 161.820312 L 31.804688 161.820312 C 30.917969 161.820312 30.191406 161.09375 30.191406 160.203125 L 30.191406 156.699219 C 30.191406 155.8125 30.917969 155.082031 31.804688 155.082031 Z M 31.804688 155.082031 " fill-opacity="1" fill-rule="evenodd"/><path fill="#000000" d="M 32.660156 225.613281 L 62.554688 225.613281 C 63.894531 225.613281 64.988281 224.519531 64.988281 223.179688 L 64.988281 220.363281 C 64.988281 219.023438 63.894531 217.929688 62.554688 217.929688 L 32.660156 217.929688 C 31.324219 217.929688 30.230469 219.023438 30.230469 220.363281 L 30.230469 223.179688 C 30.230469 224.519531 31.320312 225.613281 32.660156 225.613281 Z M 32.660156 225.613281 " fill-opacity="1" fill-rule="evenodd"/><path fill="#ffffff" d="M 32.660156 224.484375 L 62.554688 224.484375 C 63.269531 224.484375 63.859375 223.898438 63.859375 223.179688 L 63.859375 220.363281 C 63.859375 219.648438 63.273438 219.0625 62.554688 219.0625 L 32.660156 219.0625 C 31.949219 219.0625 31.359375 219.648438 31.359375 220.363281 L 31.359375 223.179688 C 31.359375 223.898438 31.945312 224.484375 32.660156 224.484375 Z M 32.660156 224.484375 " fill-opacity="1" fill-rule="evenodd"/><path fill="#000000" d="M 31.804688 228.984375 L 63.410156 228.984375 C 64.921875 228.984375 66.15625 227.75 66.15625 226.234375 L 66.15625 222.730469 C 66.15625 221.214844 64.921875 219.980469 63.410156 219.980469 L 31.804688 219.980469 C 30.292969 219.980469 29.058594 221.214844 29.058594 222.730469 L 29.058594 226.234375 C 29.058594 227.746094 30.292969 228.984375 31.804688 228.984375 Z M 31.804688 228.984375 " fill-opacity="1" fill-rule="evenodd"/><path fill="#ffffff" d="M 31.804688 227.851562 L 63.410156 227.851562 C 64.296875 227.851562 65.027344 227.121094 65.027344 226.234375 L 65.027344 222.730469 C 65.027344 221.835938 64.296875 221.109375 63.410156 221.109375 L 31.804688 221.109375 C 30.917969 221.109375 30.191406 221.835938 30.191406 222.730469 L 30.191406 226.234375 C 30.191406 227.121094 30.917969 227.851562 31.804688 227.851562 Z M 31.804688 227.851562 " fill-opacity="1" fill-rule="evenodd"/></svg>